<?xml version="1.0" encoding="UTF-8" standalone="no"?>
<!-- Created with Inkscape (http://www.inkscape.org/) -->

<svg
   width="280mm"
   height="210mm"
   viewBox="0 0 280 210"
   version="1.1"
   id="svg5"
   inkscape:version="1.2.2 (732a01da63, 2022-12-09)"
   sodipodi:docname="arg.svg"
   xmlns:inkscape="http://www.inkscape.org/namespaces/inkscape"
   xmlns:sodipodi="http://sodipodi.sourceforge.net/DTD/sodipodi-0.dtd"
   xmlns="http://www.w3.org/2000/svg"
   xmlns:svg="http://www.w3.org/2000/svg">
  <sodipodi:namedview
     id="namedview7"
     pagecolor="#ffffff"
     bordercolor="#000000"
     borderopacity="0.25"
     inkscape:showpageshadow="2"
     inkscape:pageopacity="0.0"
     inkscape:pagecheckerboard="0"
     inkscape:deskcolor="#d1d1d1"
     inkscape:document-units="mm"
     showgrid="false"
     inkscape:zoom="0.70199214"
     inkscape:cx="401.00164"
     inkscape:cy="289.17703"
     inkscape:window-width="1920"
     inkscape:window-height="986"
     inkscape:window-x="-11"
     inkscape:window-y="-11"
     inkscape:window-maximized="1"
     inkscape:current-layer="layer1">
    <inkscape:grid
       type="xygrid"
       id="grid236" />
  </sodipodi:namedview>
  <defs
     id="defs2">
    <clipPath
       clipPathUnits="userSpaceOnUse"
       id="clipPath5206">
      <rect
         style="fill:#ffffff;fill-opacity:1;stroke:#bdbdbd;stroke-width:7;stroke-linecap:square;stroke-miterlimit:0;stroke-opacity:1;paint-order:stroke fill markers;stop-color:#000000"
         id="rect5208"
         width="377.65738"
         height="73.119293"
         x="-49.751266"
         y="63.696701"
         ry="0.10855673" />
    </clipPath>
  </defs>
  <g
     inkscape:label="Capa 1"
     inkscape:groupmode="layer"
     id="layer1">
    <path
       style="display:inline;fill:#2b93de;fill-opacity:1;stroke:#000000;stroke-width:7;stroke-linecap:square;stroke-miterlimit:0;stroke-opacity:1;paint-order:stroke fill markers;stop-color:#000000"
       d="M 33.555511,36.195182 C 4.7025107,71.401677 2.0391885,149.83096 21.289503,172.90727 51.603051,209.24564 124.53204,200.18047 136.50247,197.65159 204.69303,183.2456 234.3497,208.95719 262.37588,173.21553 280.91918,149.56734 278.96287,71.709935 250.10987,36.50344 227.46793,8.8756947 178.76777,13.019083 141.83269,12.968849 104.9193,12.918645 56.197451,8.5674369 33.555511,36.195182 Z"
       id="path238"
       sodipodi:nodetypes="sssssss" />
    <path
       style="display:inline;fill:#ffffff;fill-opacity:1;stroke:#000000;stroke-width:7;stroke-linecap:square;stroke-miterlimit:0;stroke-opacity:1;paint-order:stroke fill markers;stop-color:#000000"
       d="M 29.632558,34.745764 C 0.77955837,69.952259 -1.8837646,148.38154 17.36655,171.45785 c 30.313548,36.33837 103.24253,27.2732 115.21296,24.74432 68.19056,-14.40599 97.84723,11.3056 125.87341,-24.43606 C 276.99622,148.11792 275.03991,70.260517 246.18691,35.054022 223.54497,7.4262772 174.84481,11.569665 137.90973,11.519431 100.99635,11.469227 52.274498,7.1180194 29.632558,34.745764 Z"
       id="path238-9"
       sodipodi:nodetypes="sssssss"
       clip-path="url(#clipPath5206)"
       transform="translate(3.7690355,1.1152989)" />
    <ellipse
       style="fill:#dcb903;fill-opacity:1;stroke:none;stroke-width:11.0701;stroke-linecap:square;stroke-miterlimit:0;stroke-opacity:1;paint-order:stroke fill markers;stop-color:#000000"
       id="path5266"
       cx="143.60025"
       cy="101.76396"
       rx="35.052032"
       ry="32.413704" />
  </g>
</svg>
