<?xml version="1.0" encoding="UTF-8" standalone="no"?>
<!-- Created with Inkscape (http://www.inkscape.org/) -->

<svg
   width="297mm"
   height="210mm"
   viewBox="0 0 297 210"
   version="1.1"
   id="svg5"
   inkscape:version="1.2.2 (732a01da63, 2022-12-09)"
   sodipodi:docname="bg-4.svg"
   xmlns:inkscape="http://www.inkscape.org/namespaces/inkscape"
   xmlns:sodipodi="http://sodipodi.sourceforge.net/DTD/sodipodi-0.dtd"
   xmlns:xlink="http://www.w3.org/1999/xlink"
   xmlns="http://www.w3.org/2000/svg"
   xmlns:svg="http://www.w3.org/2000/svg">
  <sodipodi:namedview
     id="namedview7"
     pagecolor="#ffffff"
     bordercolor="#000000"
     borderopacity="0.25"
     inkscape:showpageshadow="2"
     inkscape:pageopacity="0.0"
     inkscape:pagecheckerboard="0"
     inkscape:deskcolor="#d1d1d1"
     inkscape:document-units="mm"
     showgrid="false"
     inkscape:zoom="0.70199214"
     inkscape:cx="697.30125"
     inkscape:cy="348.2945"
     inkscape:window-width="1920"
     inkscape:window-height="986"
     inkscape:window-x="-11"
     inkscape:window-y="-11"
     inkscape:window-maximized="1"
     inkscape:current-layer="layer1" />
  <defs
     id="defs2">
    <linearGradient
       inkscape:collect="always"
       id="linearGradient14338">
      <stop
         style="stop-color:#4bec9c;stop-opacity:1;"
         offset="0"
         id="stop14334" />
      <stop
         style="stop-color:#084b07;stop-opacity:1;"
         offset="1"
         id="stop14336" />
    </linearGradient>
    <linearGradient
       inkscape:collect="always"
       id="linearGradient14332">
      <stop
         style="stop-color:#0c744d;stop-opacity:1;"
         offset="0"
         id="stop14328" />
      <stop
         style="stop-color:#40ec55;stop-opacity:1;"
         offset="1"
         id="stop14330" />
    </linearGradient>
    <linearGradient
       inkscape:collect="always"
       id="linearGradient7418">
      <stop
         style="stop-color:#0c7418;stop-opacity:1;"
         offset="0"
         id="stop7414" />
      <stop
         style="stop-color:#15d12c;stop-opacity:1;"
         offset="1"
         id="stop7416" />
    </linearGradient>
    <linearGradient
       inkscape:collect="always"
       id="linearGradient7249">
      <stop
         style="stop-color:#043b19;stop-opacity:1;"
         offset="0"
         id="stop7245" />
      <stop
         style="stop-color:#36b086;stop-opacity:1;"
         offset="1"
         id="stop7247" />
    </linearGradient>
    <linearGradient
       inkscape:collect="always"
       xlink:href="#linearGradient7249"
       id="linearGradient7251"
       x1="103.418"
       y1="149.99061"
       x2="329.86289"
       y2="149.99061"
       gradientUnits="userSpaceOnUse"
       gradientTransform="matrix(1.1752826,0,0,0.66503528,-22.330414,54.387448)" />
    <linearGradient
       inkscape:collect="always"
       xlink:href="#linearGradient7418"
       id="linearGradient7420"
       x1="27.080312"
       y1="127.19113"
       x2="235.75426"
       y2="127.19113"
       gradientUnits="userSpaceOnUse"
       gradientTransform="matrix(1.3999769,0,0,1.2894572,-35.037826,-54.530839)" />
    <linearGradient
       inkscape:collect="always"
       xlink:href="#linearGradient14338"
       id="linearGradient14289"
       gradientUnits="userSpaceOnUse"
       gradientTransform="matrix(1.3999769,0,0,1.2894572,-108.59862,-75.809803)"
       x1="27.080312"
       y1="127.19113"
       x2="235.75426"
       y2="127.19113" />
    <linearGradient
       inkscape:collect="always"
       xlink:href="#linearGradient14332"
       id="linearGradient14325"
       gradientUnits="userSpaceOnUse"
       gradientTransform="matrix(1.3999769,0,0,1.2894572,-106.7141,-145.16004)"
       x1="27.080312"
       y1="127.19113"
       x2="235.75426"
       y2="127.19113" />
  </defs>
  <g
     inkscape:label="Capa 1"
     inkscape:groupmode="layer"
     id="layer1"
     style="fill:none;fill-opacity:1;stroke:none;stroke-opacity:1">
    <rect
       style="fill:none;fill-opacity:1;stroke:none;stroke-width:1;stroke-linecap:square;stroke-miterlimit:0;stroke-opacity:1;paint-order:stroke fill markers"
       id="rect1689"
       width="297"
       height="211.44289"
       x="0"
       y="-0.37690356"
       ry="0.10855673" />
    <path
       style="font-variation-settings:normal;opacity:1;fill:url(#linearGradient7251);fill-opacity:1;stroke:#000000;stroke-width:2.65226;stroke-linecap:square;stroke-linejoin:miter;stroke-miterlimit:0;stroke-dasharray:none;stroke-dashoffset:0;stroke-opacity:1;paint-order:stroke fill markers;stop-color:#000000;stop-opacity:1"
       id="path6998"
       d="m 357.62066,102.8421 c -2.28689,0.2021 -4.62738,0.0446 -6.91497,0.22068 -1.74786,0.13459 -3.45847,0.39458 -5.18215,0.60672 -3.05658,0.37619 -6.07714,0.84307 -9.13651,1.21196 -1.33896,0.16145 -2.69297,0.28004 -4.03946,0.42007 -1.21739,0.0236 -2.44276,-0.0114 -3.65217,0.0709 -2.03156,0.13797 -10.17528,1.10554 -11.72007,1.25386 -1.76481,0.16945 -3.54913,0.26605 -5.32034,0.41261 -1.81273,0.14999 -4.53585,0.41286 -6.43325,0.59301 -0.8478,0.20552 -1.71122,0.3915 -2.5434,0.61655 -0.81383,0.22011 -1.57499,0.49945 -2.39037,0.71779 -1.12126,0.30024 -2.28347,0.54911 -3.41499,0.83678 -3.39957,0.86427 -6.76715,1.76979 -10.16621,2.63534 -0.69556,0.18236 -1.38401,0.37367 -2.08669,0.54708 -1.13826,0.28091 -1.02431,0.17634 -2.06525,0.49842 -1.57669,0.48783 -1.36532,0.57422 -3.36072,1.21599 -0.78297,0.25181 -1.61861,0.44716 -2.42793,0.67074 -3.36224,0.81686 -6.58766,1.81455 -10.12784,2.38198 -1.16644,0.18695 -2.38154,0.25961 -3.56165,0.41672 -2.78948,0.37136 -5.54951,0.81033 -8.32597,1.21174 -1.84257,0.34692 -8.10099,1.53649 -9.85113,1.81806 -1.69859,0.27326 -3.43085,0.47465 -5.14123,0.72327 -0.96823,0.14074 -10.03786,1.51312 -10.91022,1.62133 -1.4624,0.18139 -2.95318,0.27964 -4.42976,0.41945 -1.75553,0.26088 -5.92968,0.86229 -7.72258,1.19956 -1.75818,0.33076 -3.46138,0.75116 -5.22299,1.076 -1.7695,0.3263 -3.57903,0.57857 -5.36418,0.87632 -7.06769,1.17885 -3.11382,0.64024 -9.29685,1.37778 -1.13634,0.19828 -2.27028,0.40102 -3.40903,0.59483 -1.29466,0.22036 -2.58204,0.45631 -3.89105,0.64762 -3.96573,0.57959 -4.5836,0.48352 -8.59926,1.15286 -3.73238,0.62212 -5.45046,1.09181 -9.07047,1.94184 -4.83261,0.9235 -4.25889,0.78045 -9.09329,1.8424 -1.57305,0.34554 -3.18117,0.64745 -4.70278,1.06023 -1.80963,0.49091 -3.56336,1.04958 -5.27157,1.6456 -3.75296,1.30945 -4.9527,1.97012 -8.24237,3.50797 -1.29233,0.73805 -2.83702,1.31902 -4.16506,2.03497 -10.48384,5.65186 1.4891,11.2228 5.17493,22.75562 0.72269,2.26128 0.86713,-0.90526 0.64619,1.1051 0.10543,0.17341 0.13147,0.36955 0.31618,0.52022 0.19824,0.16173 0.4923,0.28469 0.79244,0.38415 1.28502,0.42584 2.39337,0.11398 3.72177,0.23616 0.50006,0.046 0.97771,0.15053 1.46655,0.22578 1.14146,0.0784 2.29561,0.1111 3.42437,0.23507 1.08637,0.11931 2.13306,0.33435 3.20364,0.49292 1.54922,0.22946 3.08576,0.49188 4.65552,0.67114 2.44389,0.2791 4.91842,0.46413 7.37564,0.70282 8.52966,0.82859 6.09835,0.58365 13.87196,1.45073 4.65709,0.29699 4.23731,0.38692 8.52275,0.27103 0.33018,-0.009 5.18971,-0.26781 5.61989,-0.28296 1.01358,-0.0357 2.02962,-0.044 3.04441,-0.0659 2.17168,-0.0898 4.34335,-0.17959 6.51503,-0.26939 13.20562,-0.42949 8.8853,-0.47723 21.35117,-0.19977 2.527,0.0562 5.05612,0.10519 7.57685,0.22047 1.33174,0.0609 2.66955,0.13712 3.97121,0.30763 0.23914,0.0313 0.5876,0.41957 0.54005,0.28329 -2.50452,-7.17635 -5.29181,-14.32015 -7.9377,-21.48025 -3.26017,0.71634 -4.54981,0.82309 -7.29117,2.17545 -1.98439,0.97892 -3.71132,2.11342 -5.58414,3.16036 -2.05261,1.14747 -4.04364,2.33281 -6.19194,3.42276 -4.42341,2.2442 -5.32361,2.45527 -9.8415,4.11167 -1.40265,0.45979 -2.83023,0.89606 -4.20797,1.37938 -1.40695,0.49356 -2.75523,1.03883 -4.14244,1.54996 -3.2609,1.20151 -4.7772,1.75497 -8.40832,2.82529 -3.98099,1.17346 -12.90413,3.5035 -16.21689,4.38325 -3.50032,0.66617 -6.97102,1.38439 -10.50094,1.99853 -3.08743,0.53714 -6.23551,0.95587 -9.34334,1.45391 -5.7272,0.91783 -11.48707,1.9734 -17.29079,2.7314 -16.6083,2.16912 2.14001,-0.83705 -15.4717,2.15191 -2.38993,0.37614 -4.75877,0.79814 -7.16976,1.12842 -1.23521,0.16921 -2.48853,0.32117 -3.75668,0.36839 -0.25242,0.009 -0.72596,-0.34293 -0.66818,-0.20358 2.91253,7.02507 4.32312,27.64541 9.28997,20.99944 5.02381,-6.72219 -6.05114,-14.18985 -9.07672,-21.28479 l 5.28429,21.65535 v 0 c -2.73731,-7.06212 -20.867083,-22.18289 -8.21193,-21.18629 12.78498,1.00682 5.78282,14.24326 9.29608,21.27163 0.1197,0.23946 0.76762,-0.24318 1.15821,-0.35755 1.13814,-0.33327 2.22933,-0.7282 3.42762,-0.98526 2.31803,-0.49726 10.38009,2.92177 12.74336,2.49811 4.76785,-0.74285 4.82168,-5.41935 9.64,-6.1005 3.06941,-0.43391 7.69602,4.14138 10.73855,3.65058 2.7704,-0.44691 3.94645,-5.95075 6.68256,-6.46082 6.69035,-1.24724 13.42157,-2.42357 20.10695,-3.67949 10.51264,-2.03577 8.22374,-1.45271 16.80716,-3.52868 1.80604,-0.4368 3.66224,-0.8182 5.39133,-1.34536 1.21098,-0.3692 6.38496,-2.56884 7.41965,-2.94137 1.47445,-0.53089 3.0358,-0.9802 4.55373,-1.47028 4.78278,-2.11998 5.12042,-2.2096 10.10869,-4.72443 10.06072,-5.07208 2.21178,-1.4335 11.62508,-5.70948 0.85093,-0.38654 1.61157,-0.85092 2.566,-1.15022 0.75637,-0.23721 1.65294,-0.28801 2.47943,-0.43202 -1.43289,-7.15417 -2.79967,-14.31269 -4.29866,-21.46252 -0.0219,-0.10503 0.0434,0.27884 -0.13652,0.30776 -1.22368,0.19678 -2.50609,0.26238 -3.77397,0.32109 -2.4766,0.11468 -4.96262,0.15584 -7.44636,0.19848 -12.0646,0.20714 -8.61715,0.15082 -21.50647,-0.36854 -4.71247,-0.22398 -6.07126,-0.41187 -10.10904,-0.30116 -2.92924,0.0803 -5.75654,0.52179 -8.68894,0.57371 -1.45354,0.0257 -2.90796,-0.0314 -4.36196,-0.0471 -5.35342,-0.38845 -8.14111,-0.52051 -13.59987,-1.24949 -8.36184,-1.11666 -5.20637,-0.9162 -12.07741,-2.09046 -1.12323,-0.19196 -2.28163,-0.31108 -3.41509,-0.4827 -1.07679,-0.16304 -2.14313,-0.34742 -3.2147,-0.52112 -0.70593,-0.11268 -1.40995,-0.22924 -2.11781,-0.338 -0.26076,-0.0401 -0.66592,0.0281 -0.78764,-0.10837 -0.0937,-0.10502 0.43431,-0.0345 0.5919,-0.11114 0.40837,-0.19878 0.14019,-0.94321 0.0246,-1.13962 -0.17781,-0.17538 -0.418,-0.33478 -0.53343,-0.52613 -0.0978,-0.16203 -0.14094,-0.67997 -0.0923,-0.51099 1.9657,6.82079 4.18385,13.62051 5.8435,20.46728 0.0652,0.26917 -1.05784,-0.3037 -1.02158,-0.5746 0.14072,-1.05161 3.68505,-1.42457 3.58021,-2.43015 2.37039,-1.27577 4.57377,-2.57082 7.34469,-3.58864 3.46687,-1.27344 5.77011,-1.67156 9.54291,-2.49388 5.67006,-1.23586 3.31988,-0.7499 9.17864,-1.85489 2.25768,-0.50998 6.15096,-1.4281 8.54163,-1.82343 1.65946,-0.27442 6.96832,-0.88898 8.67854,-1.10249 1.41989,-0.17725 2.86137,-0.30966 4.25382,-0.54657 1.04903,-0.17849 2.03176,-0.4638 3.04764,-0.69571 3.10254,-0.53915 6.18706,-1.11183 9.29958,-1.63227 6.02554,-1.00752 12.17049,-1.77328 18.11222,-2.94225 5.14296,-0.72973 10.28342,-1.4636 15.42448,-2.19711 1.77676,-0.25351 3.56866,-0.4732 5.33895,-0.74081 3.28346,-0.49635 6.50702,-1.11437 9.80457,-1.5828 1.29562,-0.20808 2.58039,-0.43915 3.88688,-0.62421 0.0228,-0.003 8.08012,-1.00299 8.26424,-1.03224 1.34177,-0.21308 2.64299,-0.50094 3.95798,-0.76204 3.98052,-0.7904 3.11245,-0.61556 6.59045,-1.44474 2.0772,-0.50349 4.26696,-0.97153 6.23974,-1.60455 0.2624,-0.0842 0.49183,-0.19796 0.74534,-0.29051 3.72005,-1.35809 -2.10029,0.83462 3.06313,-1.12746 5.85103,-1.84274 -0.53331,0.0894 6.60349,-1.77887 1.061,-0.27775 2.02877,-0.66658 3.11285,-0.91415 1.25606,-0.28683 2.60966,-0.41708 3.88011,-0.6828 2.18484,-0.45697 2.33532,-0.58654 4.02602,-1.24272 0.90258,-0.13871 1.81056,-0.26676 2.70783,-0.41617 1.14607,-0.19084 2.26239,-0.43991 3.42118,-0.60439 6.80329,-0.9657 13.82846,-1.22902 20.79417,-1.55255 1.44051,-0.1524 2.89606,-0.2648 4.32156,-0.45722 1.37562,-0.18568 2.70241,-0.4744 4.07114,-0.67567 2.29489,-0.33747 6.87397,-0.9339 9.29569,-1.01481 1.3747,-0.046 2.75204,0.0625 4.127,0.10554 0.97139,0.0305 1.94103,0.0767 2.91154,0.11515 l -5.98982,-21.39945 z"
       sodipodi:nodetypes="csssccsscssscssscsscssscssscssscssscsscssscssssccsccsssccssscssscssscsccsccssssscssscssscssscccsscsscssscsscccccscsscssscscsscccscsscssscsscssscccc" />
    <path
       style="font-variation-settings:normal;opacity:1;fill:url(#linearGradient7420);fill-opacity:1;stroke:#000000;stroke-width:4.03074;stroke-linecap:square;stroke-linejoin:miter;stroke-miterlimit:0;stroke-dasharray:none;stroke-dashoffset:0;stroke-opacity:1;paint-order:stroke fill markers;stop-color:#000000;stop-opacity:1"
       id="path7265"
       d="m 284.40823,22.374798 c -1.37458,0.492305 -2.71904,1.062981 -4.12374,1.476918 -1.06279,0.313183 -2.1671,0.493508 -3.26043,0.699041 -0.65792,0.123685 -1.31917,0.261688 -1.99006,0.287985 -0.12165,0.0048 -0.32043,-0.308096 -0.29503,-0.19841 9.74524,42.068452 24.71144,38.095142 7.30355,41.77665 l -9.56793,-41.091826 c -0.39539,0.08872 0.36099,0.573539 0.15993,0.747129 -0.50594,0.436769 -1.19066,0.683137 -1.66405,1.149835 -0.84654,0.834587 -0.91573,1.437431 -1.20984,2.425182 18.96301,111.195188 2.09321,0.966156 1.98263,0.354509 -0.0784,-0.4335 -0.81007,0.478885 -1.25953,0.626361 -0.97809,0.320921 -2.02311,0.447801 -3.00018,0.771304 -15.18746,5.028427 2.97901,-0.397096 -12.02191,3.958787 -3.35762,1.126185 -6.65377,2.421938 -10.0728,3.378554 -3.5428,0.991243 -7.14618,1.816206 -10.78293,2.456699 -2.18611,0.385009 -4.41844,0.641043 -6.64392,0.612467 -0.53942,-0.007 -1.51814,-1.2045 -1.41948,-0.715997 8.41289,41.661263 -2.88174,48.717224 9.90029,40.548024 -2.8093,-13.916281 -4.88198,-27.976003 -8.42793,-41.748861 -0.17405,-0.676101 -1.49185,0.210228 -2.23231,0.343264 -2.08261,0.374181 -2.06414,0.377204 -3.93104,1.05589 -0.31793,0.115574 -0.66576,0.188428 -0.94109,0.374955 -0.15955,0.108083 0.38498,-0.08576 0.57749,-0.128636 0.1704,-0.07969 0.69981,-0.210628 0.51121,-0.239071 -0.59359,-0.08952 -1.20874,-0.03636 -1.80385,0.04413 -1.58816,0.214804 -3.22927,0.664851 -4.6726,1.323875 -1.24091,0.566602 -2.38303,1.300842 -3.58329,1.937413 -5.15298,2.820077 2.57544,-1.455989 -3.53934,2.114606 -2.86224,1.671344 -0.65292,0.09623 -3.66827,2.065841 -0.97886,0.639402 -2.34491,1.661506 -3.33785,2.393724 -15.22968,10.236013 -3.96982,-3.899049 6.14928,43.662144 0.0573,0.268864 0.0626,1.091086 0.007,0.821912 -6.8823,-33.415612 -10.51739,-53.415816 -7.76569,-38.317109 -1.39633,1.281143 1.8173,1.639221 1.72442,1.01515 -0.0463,-0.31106 -0.65084,-0.278474 -0.98907,-0.23938 -1.73926,0.201034 -3.48521,0.463136 -5.1566,0.949739 -2.61091,0.760124 -16.70288,-2.523146 -19.2501,-1.597716 -22.83935,10.19799 -1.26648,-2.486624 -24.44627,8.670224 -2.96183,1.425585 9.77702,10.394174 6.83249,11.849843 -3.17538,1.569797 -6.17982,0.991399 -9.35169,2.567205 -1.77134,0.880016 -8.63376,3.828798 -11.20148,4.939356 -3.55691,3.151832 -8.32476,5.025491 -11.28767,8.755955 -1.19491,1.504461 -5.28336,-8.182731 -6.03938,-6.537036 -0.36058,0.784906 3.01381,12.486363 2.6362,13.264443 -1.52341,2.17352 -9.58168,-8.62898 -11.55237,-6.53102 -0.67644,0.72015 -22.223686,14.5104 -22.920086,15.21421 -2.61465,2.64243 24.715536,2.47136 22.131916,5.27308 -1.56475,1.69685 -3.18208,3.35198 -4.7731,5.02797 -2.27055,2.07551 -5.60447,5.25688 -8.197375,7.17292 -0.548983,0.40566 -1.229189,0.63553 -1.808808,1.00327 -1.584687,1.00537 -3.060912,2.15504 -4.679702,3.1132 -2.224703,1.31682 -4.56113,2.46621 -6.838423,3.70441 -2.351003,1.27828 -4.69764,2.56336 -7.046458,3.84504 -1.957475,0.94973 -3.86323,1.99599 -5.872435,2.84915 -0.883602,0.37521 -12.455428,4.43345 -12.522726,4.45759 -2.561136,0.91897 -5.093682,1.90574 -7.666828,2.79579 -2.144269,0.74171 -4.349046,1.33142 -6.482747,2.09854 -2.330025,0.8377 -4.600845,1.80889 -6.901269,2.71333 -4.985052,1.635 -4.107127,1.61727 -8.253232,2.26421 -0.460184,0.0718 -0.933084,0.22694 -1.391314,0.14523 -0.416046,-0.0741 1.238704,-0.57433 1.113395,-0.70079 -0.274223,-0.27672 -0.807273,-0.093 -1.210911,-0.13943 -2.365041,0.0206 -4.722271,0.14294 -7.080538,0.29144 -0.930693,0.0483 -1.859969,0.13571 -2.792089,0.14474 -0.755374,0.008 -1.508563,-0.0834 -2.263863,-0.0958 -0.808281,-0.0133 -1.616776,0.0115 -2.425145,0.0189 -1.691613,0.0161 -3.316427,0.11553 -4.9689357,-0.24208 -0.6225376,-0.11734 -1.2647337,0.22351 -1.8761602,0.0982 -0.7593663,-0.1557 -1.001482,-0.87307 -1.3665656,-1.36504 -0.2001597,-0.26972 -0.4288738,-0.52049 -0.6433085,-0.78072 l 3.9097956,42.03819 v 0 c 0.3920764,0.22603 0.7595561,0.49311 1.1762354,0.67807 1.862884,0.82685 3.963237,1.19487 6.022194,1.16409 1.586461,-0.40123 3.211338,-0.27764 4.841204,-0.25855 2.511551,0.0294 5.017607,-0.12978 7.520535,0.13999 0.825212,0.0493 1.990949,0.15672 2.870185,0.10175 0.703792,-0.044 1.252177,-0.28929 2.001215,-0.16981 0.239103,0.0381 0.449422,0.16876 0.674132,0.25313 0.308974,0.70262 0.09566,0.48509 1.653819,0.43368 1.88688,-0.0623 1.093628,-0.19051 2.666606,-0.88001 2.772708,-1.21537 5.741356,-2.03449 8.391151,-3.50129 6.910417,-2.58218 13.749948,-5.34043 20.800017,-7.59244 4.557218,-1.45572 8.991532,-2.3915 13.326269,-4.37803 2.045044,-0.93721 3.918111,-2.16375 5.877162,-3.24561 7.0584,-3.84291 6.535014,-3.77664 13.924608,-6.93864 1.8911,-0.8092 3.94741,-1.30688 5.74461,-2.28084 0.78037,-0.42291 1.21094,-1.24099 1.84783,-1.83374 8.8332,-8.2209 -1.53869,1.79406 8.25747,-7.77487 1.74666,-1.49996 3.56698,-2.9303 5.23999,-4.49989 1.15129,-1.08013 2.13498,-2.30183 3.22088,-3.43798 0.89446,-0.93586 1.80043,-1.86254 2.71987,-2.77764 1.71443,-1.70634 3.57075,-3.28981 5.26183,-5.01581 0.72645,-0.74145 1.37052,-1.54801 2.05576,-2.32201 1.53138,-1.99022 2.01378,-2.23385 2.73332,-4.4633 0.43277,-1.34084 0.52823,-3.71784 1.46445,-4.88611 1.47078,-1.83535 6.41762,-4.97052 8.14818,-6.15179 1.30356,-0.89238 2.55837,-1.84857 3.91068,-2.67711 8.0062,-4.90534 16.59069,-8.95794 25.03823,-13.15934 3.29067,-1.63663 6.46713,-3.48104 9.85837,-4.93312 3.19839,-1.3695 6.5797,-2.34272 9.86953,-3.51408 2.27451,-0.58747 4.49402,-1.40142 6.82352,-1.762444 6.13472,-0.950704 1.94899,0.467994 6.19192,0.377664 1.32399,-0.0282 3.61748,-0.438436 4.60078,-1.456991 0.31106,-0.322222 0.15131,-0.851016 0.22697,-1.276537 3.14654,-15.648722 0.6951,-2.399421 -8.03833,-43.923224 -0.0738,-0.35049 -0.7855,-1.193544 -0.71882,-0.841862 2.56762,13.542643 6.05725,26.938458 8.24491,40.537576 0.0863,0.536104 -1.24641,0.08845 -1.75362,-0.186224 -0.25043,-0.135638 -0.0453,-0.533552 -0.0677,-0.800328 0.53281,-0.376715 1.06561,-0.753417 1.59842,-1.130132 0.41104,-0.43029 0.74819,-0.931773 1.23317,-1.290887 0.59179,-0.438223 1.3174,-0.696849 1.95811,-1.072197 0.55248,-0.323641 1.0549,-0.718421 1.61957,-1.023688 3.57682,-1.933643 4.49472,19.015304 6.83444,17.267604 0.60924,-0.30581 -2.15965,-19.811147 -1.5644,-20.139495 0.88104,-0.485957 1.63825,-1.176539 2.58397,-1.545195 1.60967,-0.627463 2.25396,0.481342 3.90726,0.05274 0.50344,-0.105865 1.04529,-0.111022 1.51035,-0.317787 0.12907,-0.05738 0.007,-0.275827 0.0799,-0.389312 0.13384,-0.207268 0.28565,-0.436159 0.52136,-0.54125 1.12026,-0.499497 1.68167,-0.301708 2.84509,-0.197223 l -7.23531,-41.607779 c -15.76393,5.343742 -3.4139,0.686555 6.45522,42.404819 0.14896,0.62968 1.23746,-0.612982 1.89768,-0.82635 2.15229,-0.695532 4.31932,-1.363639 6.52585,-1.895849 3.65071,-0.880532 7.35391,-1.564911 11.03287,-2.33923 3.46042,-0.728324 6.92349,-1.445791 10.38523,-2.168686 3.61242,-1.016288 8.00583,-2.338533 11.7319,-3.062603 1.20445,-0.234052 2.44669,-0.262548 3.65942,-0.456984 0.80545,-0.129135 2.43033,0.23935 2.38871,-0.512703 -1.79072,-32.355665 -11.78376,-78.9766463 3.00085,-1.692012 -0.33791,-0.500102 -0.83725,-1.295541 -1.28404,-1.713419 -0.22953,-0.214657 -0.9433,-0.269782 -0.79012,-0.535983 0.24247,-0.421378 0.96838,-0.344366 1.42551,-0.568299 13.79046,-6.755279 10.36519,-59.0764392 -8.09631,-42.510154 -17.92053,2.963714 -3.98188,-0.238069 6.70994,42.080402 0.0724,0.286298 0.59398,-0.215213 0.89221,-0.319912 1.82459,-0.640572 3.36432,-1.190883 5.30262,-1.685978 1.4265,-0.364364 2.87918,-0.635389 4.31876,-0.953082 l -8.54175,-41.075159 z"
       sodipodi:nodetypes="cssscccsscssscsssccsssscssscsscsccssscssscsscssscsssscscsscscscccsccssccsscscsscsscsscssccsssscsscssscssscccssccssscsscscsccsssscssscssccsssccc" />
    <path
       style="font-variation-settings:normal;fill:url(#linearGradient14289);fill-opacity:1;stroke:#000000;stroke-width:4.03074;stroke-linecap:square;stroke-linejoin:miter;stroke-miterlimit:0;stroke-dasharray:none;stroke-dashoffset:0;stroke-opacity:1;paint-order:stroke fill markers;stop-color:#000000"
       id="path7265-9"
       d="m 210.84743,1.0958342 c -1.37458,0.492305 -2.71904,1.062981 -4.12374,1.476918 -1.06279,0.313183 -2.1671,0.493508 -3.26043,0.699041 -0.65792,0.123685 -1.31917,0.261688 -1.99006,0.287985 -0.12165,0.0048 -0.32043,-0.308096 -0.29503,-0.19841 9.74524,42.0684518 24.71144,38.0951418 7.30355,41.7766498 L 198.91379,4.0461922 c -0.39539,0.08872 0.36099,0.573539 0.15993,0.747129 -0.50594,0.436769 -1.19066,0.683137 -1.66405,1.149835 -0.84654,0.834587 -0.91573,1.437431 -1.20984,2.425182 18.96301,111.1951918 2.09321,0.966156 1.98263,0.354509 -0.0784,-0.4335 -0.81007,0.478885 -1.25953,0.626361 -0.97809,0.320921 -2.02311,0.447801 -3.00018,0.7713038 -15.18746,5.028427 2.97901,-0.3970958 -12.02191,3.958787 -3.35762,1.126185 -6.65377,2.421938 -10.0728,3.378554 -3.5428,0.991243 -7.14618,1.816206 -10.78293,2.456699 -2.18611,0.385009 -4.41844,0.641043 -6.64392,0.612467 -0.53942,-0.007 -1.51814,-1.2045 -1.41948,-0.715997 8.41289,41.661263 -2.88174,48.717223 9.90029,40.548023 -2.8093,-13.91628 -4.88198,-27.976002 -8.42793,-41.74886 -0.17405,-0.676101 -1.49185,0.210228 -2.23231,0.343264 -2.08261,0.374181 -2.06414,0.377204 -3.93104,1.05589 -0.31793,0.115574 -0.66576,0.188428 -0.94109,0.374955 -0.15955,0.108083 0.38498,-0.08576 0.57749,-0.128636 0.1704,-0.07969 0.69981,-0.210628 0.51121,-0.239071 -0.59359,-0.08952 -1.20874,-0.03636 -1.80385,0.04413 -1.58816,0.214804 -3.22927,0.664851 -4.6726,1.323875 -1.24091,0.566602 -2.38303,1.300842 -3.58329,1.937413 -5.15298,2.820077 2.57544,-1.455989 -3.53934,2.114606 -2.86224,1.671344 -0.65292,0.09623 -3.66827,2.065841 -0.97886,0.639402 -2.34491,1.661506 -3.33785,2.393724 -15.22968,10.236013 -3.96982,-3.899049 6.14928,43.662139 0.0573,0.26887 0.0626,1.09109 0.007,0.82192 -6.8823,-33.415615 -10.51739,-53.415819 -7.76569,-38.317112 -1.39633,1.281143 1.8173,1.639221 1.72442,1.01515 -0.0463,-0.31106 -0.65084,-0.278474 -0.98907,-0.23938 -1.73926,0.201034 -3.48521,0.463136 -5.1566,0.949739 -2.61091,0.760124 -16.70288,-2.523146 -19.2501,-1.597716 -22.839349,10.19799 -1.26648,-2.486624 -24.446269,8.670224 -2.96183,1.425585 9.77702,10.394175 6.83249,11.849845 -3.17538,1.56979 -6.17982,0.9914 -9.35169,2.5672 -1.77134,0.88002 -8.63376,3.8288 -11.20148,4.93936 -3.55691,3.15183 -8.32476,5.02549 -11.28767,8.75595 -1.19491,1.50446 -1.51432,2.74748 -2.27034,4.39317 -0.36058,0.78491 -0.75523,1.55616 -1.13284,2.33424 -1.52341,2.17352 -2.04361,3.05503 -4.0143,5.15299 -0.67644,0.72015 -1.49399,1.31878 -2.19039,2.02259 -2.61465,2.64243 -3.55223,3.97897 -6.13585,6.78069 -1.56475,1.69685 -3.18208,3.35198 -4.7731,5.02797 -2.27055,2.075515 -5.60447,5.256885 -8.197375,7.172925 -0.548983,0.40566 -1.229189,0.63553 -1.808808,1.00327 -1.584687,1.00537 -3.060912,2.15504 -4.679702,3.1132 -2.224703,1.31682 -4.56113,2.46621 -6.838423,3.70441 -2.3510029,1.27828 -4.6976399,2.56336 -7.0464579,3.84504 -1.957475,0.94973 -3.86323001,1.99599 -5.872435,2.84915 -0.883602,0.37521 -12.4554281,4.43345 -12.5227261,4.45759 -2.561136,0.91897 -5.093682,1.90574 -7.666828,2.79579 -2.144269,0.74171 -4.349046,1.33142 -6.482747,2.09854 -2.330025,0.8377 -4.600845,1.80889 -6.901269,2.71333 -4.985052,1.635 -4.107127,1.61727 -8.253232,2.26421 -0.460184,0.0718 -0.933084,0.22694 -1.391314,0.14523 -0.416046,-0.0741 1.238704,-0.57433 1.113395,-0.70079 -0.274223,-0.27672 -0.807273,-0.093 -1.210911,-0.13943 -2.365041,0.0206 -4.722271,0.14294 -7.080538,0.29144 -0.930693,0.0483 -1.859969,0.13571 -2.792089,0.14474 -0.755374,0.008 -1.508563,-0.0834 -2.263863,-0.0958 -0.808281,-0.0133 -1.616776,0.0115 -2.425145,0.0189 -1.691613,0.0161 -3.316427,0.11553 -4.968936,-0.24208 -0.622537,-0.11734 -1.264733,0.22351 -1.87616,0.0982 -0.759366,-0.1557 -1.001482,-0.87307 -1.366566,-1.36504 -0.200159,-0.26972 -0.428873,-0.52049 -0.643308,-0.78072 l 3.909796,42.03819 v 0 c 0.392076,0.22603 0.759556,0.49311 1.176235,0.67807 1.862884,0.82685 3.963237,1.19487 6.022194,1.16409 1.586461,-0.40123 3.211338,-0.27764 4.841204,-0.25855 2.511551,0.0294 5.017607,-0.12978 7.520535,0.13999 0.825212,0.0493 1.990949,0.15672 2.870185,0.10175 0.703792,-0.044 1.252177,-0.28929 2.001215,-0.16981 0.239103,0.0381 0.449422,0.16876 0.674132,0.25313 0.308974,0.70262 0.09566,0.48509 1.653819,0.43368 1.88688,-0.0623 1.093628,-0.19051 2.666606,-0.88001 2.772708,-1.21537 5.741356,-2.03449 8.391151,-3.50129 6.910417,-2.58218 13.749948,-5.34043 20.8000171,-7.59244 4.557218,-1.45572 8.991532,-2.3915 13.326269,-4.37803 2.045044,-0.93721 3.9181109,-2.16375 5.8771619,-3.24561 7.0584,-3.84291 6.535014,-3.77664 13.924608,-6.93864 1.8911,-0.8092 3.94741,-1.30688 5.74461,-2.28084 0.78037,-0.42291 1.21094,-1.24099 1.84783,-1.83374 8.8332,-8.2209 -1.53869,1.79406 8.25747,-7.77487 1.74666,-1.49996 3.56698,-2.9303 5.23999,-4.49989 1.15129,-1.08013 2.13498,-2.30183 3.22088,-3.43798 0.89446,-0.93586 1.80043,-1.86254 2.71987,-2.77764 1.71443,-1.70634 3.57075,-3.28981 5.26183,-5.01581 0.72645,-0.74145 1.37052,-1.54801 2.05576,-2.32201 1.53138,-1.99022 5.782816,4.17351 6.502356,1.94406 0.43277,-1.34084 6.93559,-5.60236 7.87181,-6.77063 1.47078,-1.83535 -15.065883,-16.277624 -13.335323,-17.458894 1.30356,-0.89238 13.865477,4.935694 15.217787,4.107154 8.0062,-4.905345 16.59069,-8.957945 25.038229,-13.159345 3.29067,-1.63663 6.46713,-3.48104 9.85837,-4.93312 3.19839,-1.3695 6.5797,-2.34272 9.86953,-3.51408 2.27451,-0.58747 4.49402,-1.40142 6.82352,-1.76244 6.13472,-0.95071 1.94899,0.46799 6.19192,0.37766 1.32399,-0.0282 3.61748,-0.43844 4.60078,-1.45699 0.31106,-0.32222 0.15131,-0.85102 0.22697,-1.27654 3.14654,-15.64872 0.6951,-2.39942 -8.03833,-43.923221 -0.0738,-0.35049 -0.7855,-1.193544 -0.71882,-0.841862 2.56762,13.542643 6.05725,26.938453 8.24491,40.537573 0.0863,0.53611 -1.24641,0.0884 -1.75362,-0.18622 -0.25043,-0.13564 -0.0453,-0.53355 -0.0677,-0.80033 0.53281,-0.37671 1.06561,-0.75342 1.59842,-1.13013 0.41104,-0.43029 0.74819,-0.93177 1.23317,-1.29089 0.59179,-0.43822 1.3174,-0.69685 1.95811,-1.0722 0.55248,-0.32364 1.0549,-0.71842 1.61957,-1.02368 3.57682,-1.93365 1.10259,-0.20678 3.44231,-1.95448 0.60924,-0.30581 1.23248,-0.58907 1.82773,-0.91741 0.88104,-0.48596 1.63825,-1.17654 2.58397,-1.5452 1.60967,-0.62746 2.25396,0.48134 3.90726,0.0527 0.50344,-0.10586 1.04529,-0.11102 1.51035,-0.31779 0.12907,-0.0574 0.007,-0.27582 0.0799,-0.38931 0.13384,-0.20727 0.28565,-0.43616 0.52136,-0.54125 1.12026,-0.4995 1.68167,-0.30171 2.84509,-0.19722 l -7.23531,-41.60778 c -15.76393,5.343742 -3.4139,0.686555 6.45522,42.40482 0.14896,0.62968 1.23746,-0.61298 1.89768,-0.82635 2.15229,-0.69553 4.31932,-1.36364 6.52585,-1.89585 3.65071,-0.88053 7.35391,-1.56491 11.03287,-2.33923 3.46042,-0.72832 6.92349,-1.44579 10.38523,-2.16869 3.61242,-1.01628 8.00583,-2.33853 11.7319,-3.062599 1.20445,-0.234052 2.44669,-0.262548 3.65942,-0.456984 0.80545,-0.129135 2.43033,0.23935 2.38871,-0.512703 -1.79072,-32.355665 -11.78376,-78.976646 3.00085,-1.692012 -0.33791,-0.500102 -0.83725,-1.295541 -1.28404,-1.713419 -0.22953,-0.214657 -0.9433,-0.269782 -0.79012,-0.535983 0.24247,-0.421378 0.96838,-0.344366 1.42551,-0.568299 13.79046,-6.755279 10.36519,-59.076439 -8.09631,-42.5101538 -17.92053,2.963714 -3.98188,-0.238069 6.70994,42.0804018 0.0724,0.286298 0.59398,-0.215213 0.89221,-0.319912 1.82459,-0.640572 3.36432,-1.190883 5.30262,-1.685978 1.4265,-0.364364 2.87918,-0.635389 4.31876,-0.953082 L 210.84773,1.0959432 Z"
       sodipodi:nodetypes="cssscccsscssscsssccsssscssscsscsccssscssscsscssscsssscscsscscscccsccssccsscscsscsscsscssccsssscsscssscssscccssccssscsscscsccsssscssscssccsssccc" />
    <path
       style="font-variation-settings:normal;fill:url(#linearGradient14325);fill-opacity:1;stroke:#000000;stroke-width:4.03074;stroke-linecap:square;stroke-linejoin:miter;stroke-miterlimit:0;stroke-dasharray:none;stroke-dashoffset:0;stroke-opacity:1;paint-order:stroke fill markers;stop-color:#000000"
       id="path7265-9-8"
       d="m 212.73194,-68.254402 c -1.37458,0.492305 -2.71904,1.062981 -4.12374,1.476918 -1.06279,0.313183 -2.1671,0.493508 -3.26043,0.699041 -0.65792,0.123685 -1.31917,0.261688 -1.99006,0.287985 -0.12165,0.0048 -0.32043,-0.308096 -0.29503,-0.19841 9.74524,42.068452 24.71145,38.095142 7.30355,41.77665 -3.18931,-13.697274 -6.37862,-27.394551 -9.56792,-41.091826 -0.3954,0.08872 0.36098,0.573539 0.15992,0.747129 -0.50594,0.436769 -1.19066,0.683137 -1.66404,1.149835 -0.84655,0.834587 -0.91573,1.437431 -1.20985,2.425182 18.96301,111.19519 2.09321,0.966156 1.98263,0.354509 -0.0784,-0.4335 -0.81007,0.478885 -1.25953,0.626361 -0.97809,0.320921 -2.02311,0.447801 -3.00018,0.771304 -15.18746,5.028427 2.97901,-0.397096 -12.02191,3.958787 -3.35762,1.126185 -6.65377,2.421938 -10.0728,3.378554 -3.5428,0.991243 -7.14618,1.816206 -10.78293,2.456699 -2.18611,0.385009 -4.41844,0.641043 -6.64392,0.612467 -0.53942,-0.007 -1.51814,-1.2045 -1.41948,-0.715997 8.41289,41.6612631 -2.88174,48.71722313 9.9003,40.5480231 -2.80931,-13.9162801 -4.88198,-27.9760021 -8.42794,-41.7488601 -0.17405,-0.676101 -1.49185,0.210228 -2.23231,0.343264 -2.08261,0.374181 -2.06414,0.377204 -3.93104,1.05589 -0.31793,0.115574 -0.66576,0.188428 -0.94109,0.374955 -0.15955,0.108083 0.38498,-0.08576 0.57749,-0.128636 0.1704,-0.07969 0.69982,-0.210628 0.51122,-0.239071 -0.5936,-0.08952 -1.20875,-0.03636 -1.80386,0.04413 -1.58816,0.214804 -3.22927,0.664851 -4.67259,1.323875 -1.24092,0.566602 -2.38304,1.300842 -3.5833,1.937413 -5.15298,2.820077 2.57544,-1.455989 -3.53934,2.114606 -2.86223,1.671344 -0.65292,0.09623 -3.66827,2.065841 -0.97886,0.639402 -2.34491,1.661506 -3.33785,2.393724 -15.22968,10.236013 -3.96982,-3.899049 6.14928,43.6621391 0.0573,0.26887 0.0626,1.09109 0.007,0.82192 -6.8823,-33.4156151 -10.51739,-53.4158191 -7.76569,-38.3171121 -1.39633,1.281143 1.8173,1.639221 1.72442,1.01515 -0.0463,-0.31106 -0.65084,-0.278474 -0.98907,-0.23938 -1.73926,0.201034 -3.48521,0.463136 -5.1566,0.949739 -2.61091,0.760124 -16.70288,-2.523146 -19.2501,-1.597716 -22.839337,10.19799 -1.26648,-2.486624 -24.446257,8.670224 -2.96183,1.425585 9.77702,10.394175 6.83249,11.849845 -3.17538,1.56979 -6.17982,0.9914 -9.35169,2.5672 -1.77134,0.8800201 -8.63376,3.8288001 -11.20148,4.9393601 -3.55691,3.15183 -8.32476,5.02549003 -11.28767,8.75595 -1.19491,1.50446 -1.51432,2.74748 -2.27034,4.39317 -0.36058,0.78491 -0.75523,1.55616 -1.13284,2.3342399 -1.52341,2.17352 -2.04361,3.05503 -4.0143,5.15299 -0.67644,0.72015 -1.49399,1.31878 -2.19039,2.02259 -2.61465,2.64243 -3.55223,3.97897 -6.13585,6.78069 -1.56475,1.69685 -3.18208,3.35198 -4.7731,5.02797 -2.27055,2.075515 -5.60447,5.256885 -8.19738,7.172925 -0.54898,0.40566 -1.22919,0.63553 -1.80881,1.00327 -1.58468,1.00537 -3.06091,2.15504 -4.6797,3.1132 -2.2247,1.316818 -4.56113,2.466208 -6.838422,3.704408 -2.351003,1.27828 -4.6976403,2.56336 -7.0464583,3.84504 -1.957475,0.94973 -3.86323,1.99599 -5.87243496,2.84915 -0.883602,0.37521 -12.45542774,4.43345 -12.52272574,4.45759 -2.561136,0.91897 -5.093682,1.90574 -7.666828,2.79579 -2.144269,0.74171 -4.349046,1.33142 -6.482747,2.09854 -2.330025,0.8377 -4.600845,1.80889 -6.901269,2.71333 -4.985052,1.635 -4.107127,1.61727 -8.253232,2.26421 -0.460184,0.0718 -0.933084,0.22694 -1.391314,0.14523 -0.416046,-0.0741 1.238704,-0.57433 1.113395,-0.70079 -0.274223,-0.27672 -0.807273,-0.093 -1.210911,-0.13943 -2.365041,0.0206 -4.722271,0.14294 -7.080538,0.29144 -0.930693,0.0483 -1.859969,0.13571 -2.792089,0.14474 -0.755374,0.008 -1.508563,-0.0834 -2.263863,-0.0958 -0.808281,-0.0133 -1.616776,0.0115 -2.425145,0.0189 -1.691613,0.0161 -3.316427,0.11553 -4.968936,-0.24208 -0.622537,-0.11734 -1.264733,0.22351 -1.87616,0.0982 -0.759366,-0.1557 -1.001482,-0.87307 -1.366566,-1.36504 -0.200159,-0.26972 -0.428873,-0.52049 -0.643308,-0.78072 l 3.909796,42.038188 v 0 c 0.392076,0.22603 0.759556,0.49311 1.176235,0.67807 1.862884,0.82685 3.963237,1.19487 6.022194,1.16409 1.586461,-0.40123 3.211338,-0.27764 4.841204,-0.25855 2.511551,0.0294 5.017607,-0.12978 7.520535,0.13999 0.825212,0.0493 1.990949,0.15672 2.870185,0.10175 0.703792,-0.044 1.252177,-0.28929 2.001215,-0.16981 0.239103,0.0381 0.449422,0.16876 0.674132,0.25313 0.308974,0.70262 0.09566,0.48509 1.653819,0.43368 1.88688,-0.0623 1.093628,-0.19051 2.666606,-0.88001 2.772708,-1.21537 5.741356,-2.03449 8.391151,-3.50129 6.910417,-2.58218 13.749948,-5.340428 20.8000167,-7.592438 4.55721804,-1.45572 9.7453391,14.946068 14.0800761,12.959538 2.0450442,-0.93721 3.1643042,-19.501318 5.1233572,-20.583178 7.0584,-3.84291 0.881457,10.168791 8.271057,7.006791 1.8911,-0.8092 -18.2898999,25.076367 -16.4926999,24.102407 0.78037,-0.42291 19.3023109,7.05089 19.9392009,6.45814 8.8332,-8.2209 8.260802,-46.826498 18.056962,-56.395428 1.74666,-1.49996 3.56698,-2.9303 5.23999,-4.49989 1.15129,-1.08013 2.13498,-2.30183 3.22088,-3.43798 0.89446,-0.93586 1.80043,-1.86254 2.71987,-2.77764 1.71443,-1.70634 3.57075,-3.28981 5.26183,-5.01581 0.72645,-0.74145 1.37052,-1.54801 2.05576,-2.32201 1.53138,-1.99022 2.01378,-2.23385 2.73332,-4.4633 0.43277,-1.34084 0.52823,-3.71784 1.46445,-4.88611 1.47078,-1.835348 6.41762,-4.970518 8.14818,-6.151788 1.30356,-0.89238 2.55837,-1.84857 3.91068,-2.67711 8.0062,-4.905345 16.59069,-8.957945 25.038217,-13.159345 3.29067,-1.63663 6.46713,-3.48104 9.85837,-4.93312 3.19839,-1.3695 6.5797,-2.34272 9.86953,-3.51408 2.27451,-0.58747 4.49402,-1.4014199 6.82352,-1.7624399 6.13472,-0.95071 1.94899,0.46799 6.19192,0.37766 1.32399,-0.0282 3.61748,-0.43844 4.60078,-1.45699 0.31106,-0.32222 0.15131,-0.85102 0.22697,-1.27654 3.14654,-15.64872 0.6951,-2.39942 -8.03833,-43.9232211 -0.0738,-0.35049 -0.7855,-1.193544 -0.71882,-0.841862 2.56762,13.542643 6.05725,26.938453 8.24491,40.5375731 0.0863,0.53611 -1.24641,0.0884 -1.75362,-0.18622 -0.25043,-0.13564 -0.0453,-0.53355 -0.0677,-0.80033 0.53281,-0.37671 1.06561,-0.75341997 1.59842,-1.13012997 0.41104,-0.43029 0.74819,-0.93177 1.23317,-1.29089 0.59179,-0.43822003 1.3174,-0.69685003 1.95811,-1.07220003 0.55248,-0.32364 1.0549,-0.71842 1.61957,-1.02368 3.57682,-1.93365 1.10259,-0.20678 3.44231,-1.95448 0.60924,-0.30581 1.23248,-0.58907 1.82773,-0.91741 0.88104,-0.48596 1.63825,-1.17654 2.58397,-1.5452 1.60967,-0.62746 2.25396,0.48134 3.90726,0.0527 0.50344,-0.10586 1.04529,-0.11102 1.51035,-0.31779 0.12907,-0.0574 0.007,-0.27582 0.0799,-0.38931 0.13384,-0.20727 0.28565,-0.43616 0.52136,-0.54125 1.12026,-0.4995 1.68167,-0.30171 2.84509,-0.19722 l -7.23531,-41.6077801 c -15.76393,5.343742 -3.4139,0.686555 6.45522,42.4048201 0.14896,0.62968 1.23746,-0.61298 1.89768,-0.82635 2.15229,-0.69553 4.31932,-1.3636401 6.52585,-1.8958501 3.65071,-0.88053 7.35391,-1.56491 11.03287,-2.33923 3.46042,-0.72832 6.92349,-1.44579 10.38523,-2.16869 3.61242,-1.01628 8.00583,-2.33853 11.7319,-3.062599 1.20445,-0.234052 2.44669,-0.262548 3.65942,-0.456984 0.80545,-0.129135 2.43033,0.23935 2.38871,-0.512703 -1.79072,-32.355665 -11.78376,-78.976646 3.00085,-1.692012 -0.33791,-0.500102 -0.83725,-1.295541 -1.28404,-1.713419 -0.22953,-0.214657 -0.9433,-0.269782 -0.79012,-0.535983 0.24247,-0.421378 0.96838,-0.344366 1.42551,-0.568299 13.79046,-6.755279 10.36519,-59.076439 -8.09631,-42.510154 -17.92053,2.963714 -3.98188,-0.238069 6.70994,42.080402 0.0724,0.286298 0.59398,-0.215213 0.89221,-0.319912 1.82459,-0.640572 3.36432,-1.190883 5.30262,-1.685978 1.4265,-0.364364 2.87918,-0.635389 4.31876,-0.953082 l -8.54174,-41.075159 z"
       sodipodi:nodetypes="cssscccsscssscsssccsssscssscsscsccssscssscsscssscsssscscsscscscccsccssccsscscsscsscsscssccsssscsscssscssscccssccssscsscscsccsssscssscssccsssccc" />
    <circle
       style="font-variation-settings:normal;opacity:1;fill:#3ea865;fill-opacity:1;stroke:#000000;stroke-width:3;stroke-linecap:square;stroke-linejoin:miter;stroke-miterlimit:0;stroke-dasharray:none;stroke-dashoffset:0;stroke-opacity:1;paint-order:stroke fill markers;stop-color:#000000;stop-opacity:1"
       id="path14392"
       cx="253.6561"
       cy="96.487312"
       r="4.5228424" />
    <ellipse
       style="font-variation-settings:normal;opacity:1;fill:#3ea865;fill-opacity:1;stroke:#000000;stroke-width:3;stroke-linecap:square;stroke-linejoin:miter;stroke-miterlimit:0;stroke-dasharray:none;stroke-dashoffset:0;stroke-opacity:1;paint-order:stroke fill markers;stop-color:#000000;stop-opacity:1"
       id="path14394"
       cx="237.82614"
       cy="111.7519"
       rx="5.653553"
       ry="6.9727154" />
    <ellipse
       style="font-variation-settings:normal;opacity:1;fill:#3ea865;fill-opacity:1;stroke:#000000;stroke-width:3;stroke-linecap:square;stroke-linejoin:miter;stroke-miterlimit:0;stroke-dasharray:none;stroke-dashoffset:0;stroke-opacity:1;paint-order:stroke fill markers;stop-color:#000000;stop-opacity:1"
       id="path14396"
       cx="221.61929"
       cy="132.29314"
       rx="7.1611676"
       ry="9.0456848" />
    <ellipse
       style="font-variation-settings:normal;opacity:1;fill:#3ea865;fill-opacity:1;stroke:#000000;stroke-width:3;stroke-linecap:square;stroke-linejoin:miter;stroke-miterlimit:0;stroke-dasharray:none;stroke-dashoffset:0;stroke-opacity:1;paint-order:stroke fill markers;stop-color:#000000;stop-opacity:1"
       id="path14398"
       cx="208.99303"
       cy="161.31471"
       rx="13.380075"
       ry="13.191625" />
    <ellipse
       style="font-variation-settings:normal;opacity:1;fill:#3ea865;fill-opacity:1;stroke:#000000;stroke-width:3;stroke-linecap:square;stroke-linejoin:miter;stroke-miterlimit:0;stroke-dasharray:none;stroke-dashoffset:0;stroke-opacity:1;paint-order:stroke fill markers;stop-color:#000000;stop-opacity:1"
       id="path14400"
       cx="206.54314"
       cy="202.77411"
       rx="20.352791"
       ry="18.845177" />
    <ellipse
       style="font-variation-settings:normal;opacity:1;fill:#3ea865;fill-opacity:1;stroke:#000000;stroke-width:3;stroke-linecap:square;stroke-linejoin:miter;stroke-miterlimit:0;stroke-dasharray:none;stroke-dashoffset:0;stroke-opacity:1;paint-order:stroke fill markers;stop-color:#000000;stop-opacity:1"
       id="path14402"
       cx="267.41309"
       cy="87.441628"
       rx="3.2036798"
       ry="3.0152285" />
    <ellipse
       style="font-variation-settings:normal;opacity:1;fill:#3ea865;fill-opacity:1;stroke:#000000;stroke-width:3;stroke-linecap:square;stroke-linejoin:miter;stroke-miterlimit:0;stroke-dasharray:none;stroke-dashoffset:0;stroke-opacity:1;paint-order:stroke fill markers;stop-color:#000000;stop-opacity:1"
       id="path14404"
       cx="279.66245"
       cy="80.657356"
       rx="2.2614212"
       ry="2.6383247" />
    <ellipse
       style="font-variation-settings:normal;opacity:1;fill:#3ea865;fill-opacity:1;stroke:#000000;stroke-width:3;stroke-linecap:square;stroke-linejoin:miter;stroke-miterlimit:0;stroke-dasharray:none;stroke-dashoffset:0;stroke-opacity:1;paint-order:stroke fill markers;stop-color:#000000;stop-opacity:1"
       id="path14406"
       cx="289.46191"
       cy="77.830582"
       rx="1.8845177"
       ry="1.696066" />
  </g>
</svg>
